<?xml version="1.0" standalone="no"?>
<!DOCTYPE svg PUBLIC "-//W3C//DTD SVG 20010904//EN"
 "http://www.w3.org/TR/2001/REC-SVG-20010904/DTD/svg10.dtd">
<svg version="1.0" xmlns="http://www.w3.org/2000/svg"
 width="512.000000pt" height="512.000000pt" viewBox="0 0 512.000000 512.000000"
 preserveAspectRatio="xMidYMid meet">
<metadata>
Created by potrace 1.11, written by Peter Selinger 2001-2013
</metadata>
<g transform="translate(0.000000,512.000000) scale(0.100000,-0.100000)"
fill="#000000" stroke="none">
<path d="M4348 3468 c-22 -34 -38 -87 -38 -123 0 -21 -8 -39 -25 -55 -31 -29
-49 -82 -42 -125 3 -18 28 -82 56 -142 68 -147 69 -213 2 -247 -15 -8 -99 -33
-186 -56 -176 -47 -404 -124 -486 -166 -133 -67 -242 -160 -310 -264 -34 -53
-63 -129 -54 -139 14 -13 194 37 337 94 13 5 15 2 11 -16 -4 -15 -3 -20 5 -15
7 4 12 2 12 -4 0 -6 5 -8 12 -4 8 5 9 2 4 -11 -6 -18 -6 -18 15 1 l22 19 -18
-35 -18 -35 28 25 28 25 -16 -25 c-27 -39 -20 -46 15 -14 17 16 27 22 23 14
-5 -8 4 -4 18 9 29 26 34 23 16 -12 l-12 -22 23 20 23 20 -17 -32 c-8 -17 -48
-66 -87 -108 l-71 -77 23 -24 c12 -13 21 -26 18 -28 -7 -7 -310 59 -634 137
-551 134 -723 161 -1030 161 -115 -1 -236 -5 -268 -11 -56 -10 -59 -9 -87 17
-63 58 -78 198 -32 295 30 63 128 179 143 169 5 -3 9 1 9 9 0 20 71 47 126 47
77 0 169 -51 200 -112 35 -68 10 -173 -50 -209 -17 -10 -48 -19 -69 -19 -68 0
-116 37 -161 125 -28 54 -35 55 -12 1 28 -68 101 -131 156 -136 67 -6 114 21
147 83 20 39 20 115 0 153 -51 98 -200 152 -302 110 l-34 -15 -6 37 c-14 82
-37 144 -67 177 -27 32 -36 36 -72 33 -33 -2 -44 -9 -63 -37 -23 -34 -30 -75
-15 -85 5 -3 7 8 4 23 -5 38 40 91 78 91 59 0 98 -58 120 -179 l11 -62 -56
-60 c-31 -34 -68 -83 -84 -110 l-28 -50 -6 78 c-8 122 -67 254 -115 261 -32 5
-53 -51 -59 -165 -5 -85 -8 -93 -24 -88 -11 4 -23 4 -28 1 -8 -5 10 -94 24
-116 3 -6 4 -10 1 -10 -2 0 -29 35 -59 78 -30 42 -82 108 -116 146 -34 38 -61
78 -61 90 0 12 9 38 19 58 11 19 18 38 15 40 -2 3 5 4 16 3 11 -1 26 -7 33
-15 10 -10 9 -12 -6 -7 -10 4 -16 3 -13 -2 3 -4 -1 -17 -8 -27 -11 -15 -12
-22 -3 -33 10 -12 9 -13 -7 -8 -17 7 -17 6 -5 -10 13 -15 12 -16 -8 -11 -16 4
-20 2 -16 -8 8 -21 18 -17 52 21 30 35 42 87 22 99 -4 3 -6 17 -3 31 2 14 -3
36 -12 50 -9 13 -16 33 -16 43 0 10 -12 30 -27 45 -16 14 -38 40 -51 57 -13
16 -31 30 -39 30 -9 0 -26 12 -40 26 -17 19 -32 25 -56 23 -18 -2 -47 3 -64
10 -47 19 -76 1 -71 -45 5 -39 5 -39 -26 -19 -43 29 -56 12 -52 -71 1 -41 -1
-77 -6 -80 -19 -12 -6 -58 26 -90 23 -23 29 -35 20 -38 -42 -16 10 -96 61 -96
19 0 23 -5 21 -32 -1 -25 4 -33 19 -36 11 -3 26 -13 33 -23 22 -32 55 -24 134
33 13 10 22 9 45 -2 31 -17 173 -148 173 -161 0 -4 -19 -2 -41 6 -23 8 -51 15
-64 15 -18 0 -21 -4 -17 -29 l4 -30 -48 15 c-80 24 -88 19 -42 -24 l41 -39
-71 -6 c-97 -8 -105 -16 -45 -43 28 -12 88 -46 134 -75 l83 -53 -35 -7 c-19
-4 -64 -9 -100 -12 l-67 -6 -27 40 c-16 21 -30 37 -33 35 -2 -3 5 -17 17 -32
25 -32 22 -40 -9 -24 -17 9 -21 18 -18 42 3 17 -1 47 -8 67 -7 20 -13 54 -14
76 -1 62 -31 114 -108 187 -76 72 -125 101 -183 112 -44 8 -96 -9 -104 -34 -3
-11 -14 -22 -24 -25 -39 -12 -55 -44 -57 -112 -3 -80 10 -109 68 -154 24 -18
67 -55 96 -83 l53 -51 82 -2 c65 -1 94 -7 139 -27 31 -14 62 -26 67 -26 6 0
11 -4 11 -10 0 -13 -117 -13 -199 0 -35 6 -65 9 -68 7 -2 -2 26 -19 63 -36 37
-17 68 -30 71 -28 2 2 -10 10 -27 17 -16 7 -30 17 -30 22 0 5 8 5 18 -1 10 -6
29 -7 42 -4 15 4 26 1 32 -11 5 -9 14 -16 19 -16 6 0 7 5 4 10 -3 6 -1 10 4
10 16 0 13 -20 -4 -26 -8 -4 -13 -10 -10 -15 6 -9 -80 -38 -137 -46 -38 -5
-38 -5 -38 31 0 30 4 36 20 36 17 0 19 2 8 14 -7 8 -15 14 -18 13 -3 0 -18 3
-33 8 -26 7 -27 8 -10 22 16 13 13 14 -32 9 -33 -4 -92 -26 -172 -66 -143 -70
-176 -103 -177 -176 -1 -42 3 -49 41 -82 28 -25 46 -51 54 -80 13 -46 67 -102
98 -102 10 0 70 25 132 55 63 30 119 55 125 55 23 0 76 71 128 174 31 60 64
119 74 130 33 38 48 60 35 52 -7 -4 -13 -2 -13 3 0 13 10 14 29 2 31 -20 7
-87 -87 -244 -15 -26 -10 -136 8 -147 6 -4 8 -15 4 -25 -7 -18 -8 -18 -15 1
-5 12 -8 1 -8 -34 -1 -77 33 -132 82 -132 7 0 26 23 41 50 15 28 32 50 37 50
11 0 -28 -82 -45 -92 -7 -5 -5 -8 5 -8 9 0 22 6 28 14 8 9 25 12 54 9 54 -6
67 8 103 107 45 126 41 172 -19 238 l-20 22 30 0 c17 0 77 22 134 49 210 100
382 135 664 135 285 0 466 -29 988 -160 474 -118 751 -164 997 -164 234 0 410
30 588 100 90 36 237 120 237 135 0 6 -14 11 -31 13 -23 2 -48 -8 -95 -38 -74
-48 -181 -100 -256 -124 -50 -17 -53 -17 -100 4 -33 15 -64 41 -100 84 -29 34
-55 69 -58 78 -5 12 16 65 54 138 4 8 41 33 82 55 80 43 194 147 224 205 23
44 31 167 16 241 -7 32 -42 110 -86 193 -41 76 -75 146 -75 156 0 27 57 57
129 69 35 6 66 12 68 15 8 7 -29 23 -72 30 -54 10 -84 31 -101 71 -20 48 -17
104 6 145 l21 35 -31 -33 c-23 -25 -30 -28 -30 -15 -1 11 -8 3 -17 -17 l-17
-35 -3 27 c-3 15 3 40 12 57 18 36 14 41 -7 9z m-3422 -318 l15 25 -6 -28 c-4
-19 -2 -26 5 -22 11 7 12 3 4 -18 -5 -13 -10 -13 -45 1 -29 11 -39 21 -39 38
0 13 4 26 10 29 6 4 7 -1 3 -11 -4 -12 -3 -15 5 -10 7 4 12 15 13 24 0 9 5 1
11 -18 l10 -35 14 25z m-9 8 c-3 -8 -6 -5 -6 6 -1 11 2 17 5 13 3 -3 4 -12 1
-19z m74 -3 c7 18 8 18 9 -5 1 -23 2 -23 10 -5 l9 20 0 -20 c1 -15 3 -17 10
-6 12 19 20 1 14 -31 -5 -26 -6 -27 -33 -13 -29 15 -41 35 -39 63 1 13 3 12 7
-3 l5 -20 8 20z m-172 -34 c13 -7 16 -18 13 -40 -3 -26 -7 -29 -22 -21 -22 12
-35 41 -14 33 10 -4 12 0 8 11 -3 9 -11 13 -17 9 -6 -3 -7 -1 -3 5 9 14 12 15
35 3z m276 -7 c13 -5 14 -8 3 -15 -10 -6 -8 -9 7 -9 17 0 17 -2 5 -10 -12 -8
-12 -10 5 -11 19 0 18 -1 -3 -11 -19 -9 -26 -8 -43 11 -31 33 -15 61 26 45z
m-117 -56 c7 1 12 -4 12 -10 1 -7 8 -2 16 12 l15 25 -5 -35 c-5 -34 -5 -34 8
-11 16 28 26 17 19 -21 -5 -26 -8 -28 -46 -21 -44 7 -104 33 -76 33 18 0 28
19 30 53 1 20 2 20 8 -3 4 -14 13 -24 19 -22z m-88 22 c20 -6 21 -8 6 -9 -24
-1 -11 -17 19 -23 14 -3 9 -7 -19 -13 -40 -8 -56 2 -56 38 0 18 10 20 50 7z
m87 -12 c-3 -8 -6 -5 -6 6 -1 11 2 17 5 13 3 -3 4 -12 1 -19z m20 0 c-3 -8 -6
-5 -6 6 -1 11 2 17 5 13 3 -3 4 -12 1 -19z m-191 -30 c5 -7 2 -9 -7 -4 -8 4
-5 0 5 -8 11 -9 24 -22 29 -28 5 -8 6 -4 3 12 -3 14 -3 19 0 12 3 -6 10 -9 16
-6 6 4 8 -2 3 -17 -10 -33 -9 -32 -44 -14 -22 11 -31 23 -31 40 0 26 14 33 26
13z m279 -20 c18 -8 22 -14 13 -20 -9 -5 -8 -8 6 -8 26 0 16 -9 -23 -20 -30
-8 -31 -8 -31 26 0 38 0 38 35 22z m92 -3 c0 -8 -4 -12 -9 -9 -4 3 -8 1 -8 -5
0 -5 6 -12 13 -15 6 -3 3 -5 -8 -3 -27 3 -34 47 -7 47 10 0 19 -7 19 -15z
m-253 -8 c12 -9 19 -28 20 -55 1 -24 9 -47 18 -55 22 -17 30 -57 12 -57 -8 0
-14 8 -14 17 0 15 -2 14 -15 -3 -15 -18 -15 -18 -8 0 4 12 3 17 -4 13 -6 -4
-14 0 -17 9 -5 14 -9 14 -22 3 -14 -12 -16 -11 -13 6 3 12 15 22 34 26 l30 7
-30 1 c-26 1 -28 3 -12 12 15 9 16 13 5 26 -7 9 -12 19 -10 22 2 3 -2 7 -10 9
-9 2 -8 0 2 -7 18 -13 1 -14 -19 -2 -11 7 -8 11 10 16 23 8 23 8 4 16 -20 7
-20 8 1 8 11 1 28 -5 38 -12z m83 -59 c-2 -23 -8 -43 -14 -45 -17 -6 -46 44
-38 64 6 17 7 17 20 0 13 -18 14 -17 20 2 10 33 15 25 12 -21z m-151 -3 c19
-19 23 -29 15 -42 -6 -11 -6 -24 0 -35 8 -15 6 -18 -12 -18 -17 0 -19 3 -10
14 10 12 8 13 -11 9 -22 -5 -22 -5 -4 9 18 14 18 15 1 22 -10 3 -27 4 -39 1
-15 -5 -17 -4 -7 3 12 9 12 11 0 15 -8 2 -3 2 9 0 15 -2 21 0 17 7 -3 5 -16
11 -28 11 -20 1 -21 2 -2 7 l20 5 -20 8 c-16 6 -14 8 13 8 22 1 41 -7 58 -24z
m257 5 c6 0 2 -7 -9 -16 -16 -13 -16 -15 -2 -10 23 7 19 -14 -5 -32 -24 -18
-47 -8 -47 21 0 28 19 49 38 42 8 -3 19 -5 25 -5z m82 -10 c-2 -13 2 -23 11
-27 21 -8 -1 -23 -33 -23 -27 0 -29 17 -7 48 19 28 34 29 29 2z m-164 1 c6 10
9 6 9 -13 0 -16 -4 -28 -10 -28 -5 0 -10 4 -10 9 0 5 -2 15 -3 23 -2 7 -2 9 1
4 2 -4 8 -2 13 5z m-16 -61 c-3 -5 -4 -10 -1 -10 2 0 13 -3 23 -6 15 -5 15 -4
3 5 -18 13 -1 15 18 2 11 -6 10 -10 -3 -15 -14 -5 -15 -9 -5 -21 18 -22 4 -31
-25 -15 -36 19 -46 70 -14 70 6 0 7 -4 4 -10z m117 -10 c21 -19 21 -20 2 -20
-16 0 -17 -2 -4 -10 11 -7 11 -10 2 -10 -7 0 -10 -4 -7 -10 3 -5 0 -10 -7 -10
-10 0 -10 -2 1 -9 9 -6 11 -15 6 -27 -13 -32 -14 -46 -2 -42 7 2 41 -27 77
-66 l65 -69 -65 52 c-36 29 -64 57 -62 62 1 5 -5 9 -14 9 -9 0 -27 9 -41 20
-19 15 -30 17 -43 10 -24 -13 -40 -13 -40 0 0 5 8 7 18 5 9 -3 1 2 -18 10 -54
24 -65 31 -68 47 -5 25 57 18 65 -7 6 -20 31 -44 47 -45 5 0 3 6 -3 13 -6 8
-8 17 -4 20 9 10 35 9 30 0 -2 -5 8 -19 21 -33 14 -14 22 -20 18 -13 -3 6 -1
15 4 18 8 5 6 13 -5 25 -13 14 -15 28 -10 59 4 23 9 41 11 41 3 0 14 -9 26
-20z m-216 -27 c-3 -4 -6 -1 -6 6 0 7 -4 9 -10 6 -11 -7 -14 8 -3 19 4 3 11
-1 16 -9 5 -9 6 -19 3 -22z m4 -35 c28 -30 31 -48 8 -48 -5 0 -7 8 -4 17 6 15
4 14 -14 -2 -15 -14 -19 -15 -15 -4 4 10 0 16 -9 16 -8 0 -14 -4 -13 -8 1 -4
-2 -7 -8 -7 -5 -1 -9 5 -7 13 3 18 -15 28 -24 14 -4 -8 -3 -9 4 -5 7 4 12 5
12 2 0 -16 -21 -13 -30 4 -15 28 -5 40 36 40 27 0 42 -8 64 -32z m555 1 c0 -8
-8 -13 -20 -11 -18 3 -18 2 3 -13 26 -19 20 -38 -11 -30 -21 6 -22 6 -3 -9 26
-21 29 -20 45 5 11 18 11 23 0 30 -8 4 -10 11 -6 15 4 4 14 -1 21 -12 11 -14
11 -21 3 -26 -7 -4 -8 -8 -3 -8 6 0 0 -10 -13 -21 -19 -18 -27 -20 -47 -10
-28 12 -30 28 -9 77 14 35 40 43 40 13z m-499 -66 c10 -15 8 -20 -14 -35 -15
-10 -35 -18 -44 -18 -25 0 -23 37 3 51 12 6 19 7 16 2 -4 -5 0 -10 7 -10 8 0
12 6 9 14 -7 19 8 16 23 -4z m569 -64 c-4 -5 -1 -9 5 -9 6 0 9 -17 6 -45 -2
-25 0 -43 5 -39 20 12 7 -24 -16 -46 -14 -13 -25 -19 -25 -14 0 5 9 16 19 24
11 7 18 17 15 22 -9 14 -24 9 -24 -8 0 -8 -5 -12 -10 -9 -6 4 -3 17 10 35 21
30 26 45 11 35 -5 -3 -12 -1 -16 4 -3 5 2 14 11 19 15 9 15 11 -5 22 -17 9
-20 15 -12 23 14 14 15 40 1 32 -6 -4 -7 1 -3 12 6 14 9 12 20 -15 7 -18 11
-37 8 -43z m-898 45 c4 -12 8 -13 14 -3 6 10 13 10 36 -1 l28 -14 -32 -4 c-32
-3 -33 -5 -33 -48 0 -24 -4 -44 -10 -44 -11 0 -18 26 -23 85 -3 35 -4 33 -5
-12 -1 -28 -7 -55 -12 -58 -6 -4 -10 -3 -9 2 1 4 -3 21 -9 36 -23 54 -14 71
36 76 7 0 15 -6 19 -15z m438 -3 c3 -6 -4 -15 -16 -21 -16 -9 -20 -9 -14 0 6
9 3 9 -13 1 -12 -6 -24 -17 -28 -24 -5 -7 -1 -7 12 2 18 14 18 14 2 -4 -14
-15 -21 -16 -30 -7 -8 8 -15 9 -25 0 -7 -6 -17 -8 -21 -4 -4 4 8 21 26 37 33
29 94 40 107 20z m-511 -34 c4 -19 3 -26 -4 -22 -5 3 -10 1 -10 -4 0 -6 -7
-11 -16 -11 -9 0 -14 3 -12 8 21 42 32 62 33 60 1 -2 5 -16 9 -31z m867 23
c24 -14 26 -41 2 -34 -17 5 -17 5 0 -6 22 -14 22 -34 0 -26 -14 6 -12 2 5 -17
28 -29 28 -36 0 -31 l-23 5 23 -10 c12 -6 22 -15 22 -21 0 -6 -4 -8 -10 -5
-16 10 -12 -5 6 -23 12 -11 13 -17 5 -20 -9 -3 -7 -10 6 -25 17 -19 17 -20 1
-14 -10 4 -18 2 -18 -3 0 -6 6 -10 14 -10 8 0 17 -7 20 -16 5 -12 2 -15 -11
-10 -11 4 -8 -1 7 -13 14 -11 22 -23 18 -26 -3 -4 5 -23 18 -42 22 -32 30 -53
21 -53 -2 0 -18 20 -36 45 -20 27 -27 45 -19 45 7 0 1 10 -13 23 -39 33 -61
100 -67 205 -2 50 -2 92 2 92 4 0 16 -5 27 -10z m61 -12 c-16 -16 -15 -28 3
-28 8 0 15 -7 15 -15 0 -19 -19 -19 -26 0 -4 8 -10 12 -15 9 -13 -7 -11 3 3
26 7 11 17 20 22 20 6 0 5 -5 -2 -12z m-816 -55 c-10 -83 -8 -81 -36 -63 -13
8 -12 10 3 10 14 0 17 9 17 50 0 30 4 50 11 50 7 0 9 -16 5 -47z m34 37 c0 -5
-4 -10 -10 -10 -5 0 -10 5 -10 10 0 6 5 10 10 10 6 0 10 -4 10 -10z m37 4 c-3
-3 -12 -4 -19 -1 -8 3 -5 6 6 6 11 1 17 -2 13 -5z m-237 -24 c0 -5 -4 -10 -10
-10 -5 0 -10 5 -10 10 0 6 5 10 10 10 6 0 10 -4 10 -10z m240 -5 c0 -8 -7 -15
-15 -15 -8 0 -15 7 -15 15 0 8 7 15 15 15 8 0 15 -7 15 -15z m40 -7 c0 -13
-23 -5 -28 10 -2 7 2 10 12 6 9 -3 16 -11 16 -16z m-87 -20 c-6 -35 -11 -44
-17 -37 -7 8 6 69 15 69 5 0 6 -15 2 -32z m-193 8 c0 -9 -30 -14 -35 -6 -4 6
3 10 14 10 12 0 21 -2 21 -4z m30 -6 c0 -5 -4 -10 -10 -10 -5 0 -10 5 -10 10
0 6 5 10 10 10 6 0 10 -4 10 -10z m950 0 c0 -5 -4 -10 -9 -10 -6 0 -13 5 -16
10 -3 6 1 10 9 10 9 0 16 -4 16 -10z m-750 -10 c-19 -13 -30 -13 -30 0 0 6 10
10 23 10 18 0 19 -2 7 -10z m111 -26 c24 -25 28 -33 14 -28 -18 7 -18 6 -6 -9
7 -9 18 -14 25 -10 6 3 6 0 -1 -8 -7 -7 -13 -21 -13 -31 0 -11 -7 -18 -19 -18
-13 0 -18 6 -16 18 15 75 15 79 -13 93 -15 7 -36 16 -47 20 -16 6 -14 7 11 8
22 1 39 -8 65 -35z m-351 11 c0 -8 -9 -15 -20 -15 -25 0 -26 17 -2 23 9 3 18
5 20 6 1 0 2 -6 2 -14z m1020 10 c0 -3 -9 -15 -20 -27 -21 -23 -28 -7 -7 17
12 14 27 20 27 10z m-994 -32 c-10 -10 -19 5 -10 18 6 11 8 11 12 0 2 -7 1
-15 -2 -18z m42 15 c-6 -18 -28 -21 -28 -4 0 9 7 16 16 16 9 0 14 -5 12 -12z
m27 3 c3 -5 1 -12 -5 -16 -5 -3 -10 1 -10 9 0 18 6 21 15 7z m155 -39 c0 -45
-2 -48 -27 -50 -15 -1 -31 -6 -36 -11 -6 -6 -2 -8 11 -4 12 3 30 2 39 -2 15
-7 13 -9 -12 -15 -30 -8 -30 -8 7 -9 47 -1 61 -21 16 -22 l-33 -1 30 -8 c21
-5 24 -8 10 -10 -11 -1 -15 -4 -7 -7 7 -2 12 -22 12 -44 0 -22 5 -49 11 -61
10 -18 8 -19 -13 -13 -12 4 -33 13 -45 21 -16 10 -29 11 -47 5 -24 -10 -36 -6
-36 12 0 5 11 6 26 3 l25 -7 -20 28 c-24 33 -32 85 -20 129 8 29 12 32 49 30
22 0 40 0 40 1 0 1 -5 14 -11 30 -8 23 -7 30 7 40 10 7 19 13 21 13 2 0 3 -22
3 -48z m40 6 c0 -24 -3 -53 -6 -65 -11 -40 -24 -14 -24 48 0 46 3 59 15 59 11
0 15 -11 15 -42z m40 -22 c0 -39 -22 -88 -33 -76 -3 3 -3 33 0 67 4 46 9 60
19 56 9 -3 14 -21 14 -47z m-272 20 c30 2 40 -5 25 -19 -3 -4 -12 -2 -20 4 -9
9 -13 8 -13 0 0 -12 -48 -15 -74 -5 -9 3 -16 12 -16 19 0 9 9 11 33 6 17 -3
47 -6 65 -5z m144 -4 c-7 -2 -10 -8 -7 -12 3 -5 -12 -9 -34 -8 -29 0 -38 4
-34 14 4 10 10 11 24 4 13 -7 22 -6 31 4 7 8 17 11 23 8 5 -3 4 -7 -3 -10z
m679 8 c10 -6 19 -17 19 -25 0 -59 120 -259 142 -237 7 7 6 17 -1 31 -9 16 -9
21 0 21 8 0 7 5 -2 17 -12 15 -12 16 1 8 8 -4 4 5 -10 21 -14 15 -17 22 -7 15
21 -17 33 -9 13 8 -14 11 -13 16 1 37 12 18 13 27 4 38 -8 10 -8 16 2 24 10 9
13 4 14 -23 1 -19 -3 -38 -8 -41 -5 -3 -9 -12 -9 -20 0 -8 5 -12 10 -9 6 4 10
-12 10 -42 0 -26 3 -59 7 -72 4 -16 3 -22 -5 -17 -21 13 -21 -12 1 -40 l22
-29 -30 22 c-44 31 -130 124 -149 161 -10 19 -21 30 -28 26 -6 -4 -8 -3 -5 3
3 5 0 31 -8 58 -23 75 -21 84 16 65z m-761 -9 c0 -6 -4 -13 -10 -16 -5 -3 -10
1 -10 9 0 9 5 16 10 16 6 0 10 -4 10 -9z m876 -28 c-4 -9 -1 -20 6 -25 10 -7
9 -9 -2 -5 -16 4 -23 47 -8 47 6 0 7 -8 4 -17z m-928 -5 c67 -2 85 -9 62 -23
-5 -3 -7 -12 -4 -20 9 -21 -13 -26 -85 -17 -87 10 -95 32 -12 32 51 0 61 -3
61 -17 1 -17 1 -17 11 -1 16 28 8 32 -65 32 -49 1 -71 5 -74 15 -3 9 1 11 14
7 11 -3 52 -7 92 -8z m633 -13 c6 17 8 16 8 -8 1 -39 -23 -30 -26 9 -1 25 -1
26 4 4 5 -23 6 -24 14 -5z m39 -15 l2 35 8 -33 c10 -44 22 -55 14 -12 -5 24
-4 31 4 26 7 -4 13 -24 13 -44 l2 -37 6 40 c5 30 8 36 14 22 8 -22 10 -77 1
-77 -3 0 -25 11 -48 25 -39 23 -42 28 -37 57 l5 33 7 -35 6 -35 3 35z m-334
-29 c-3 -9 -10 -42 -17 -74 -8 -37 -15 -53 -21 -45 -12 19 2 101 20 116 9 7
11 12 4 12 -7 0 -12 10 -12 23 1 21 1 22 15 3 8 -11 13 -27 11 -35z m297 -7
c26 -14 47 -26 47 -27 0 -2 -27 0 -60 3 -43 4 -66 12 -85 30 -14 13 -25 27
-25 31 0 11 68 -10 123 -37z m319 19 c-6 -3 -10 -9 -7 -13 3 -5 1 -11 -5 -15
-5 -3 -10 0 -10 7 0 17 22 40 29 31 3 -3 0 -8 -7 -10z m-182 -45 c0 -16 -4
-28 -10 -28 -5 0 -10 19 -10 43 0 31 3 38 10 27 5 -8 10 -27 10 -42z m-480 -6
c-12 -68 -25 -78 -28 -20 -1 32 2 55 10 59 20 13 26 1 18 -39z m-286 22 c25
-4 46 -11 46 -15 0 -15 -95 -10 -116 6 -19 14 -19 14 2 15 12 0 42 -3 68 -6z
m246 -10 c0 -8 -4 -12 -10 -9 -5 3 -10 10 -10 16 0 5 5 9 10 9 6 0 10 -7 10
-16z m550 -31 c0 -7 -4 -13 -10 -13 -5 0 -10 12 -10 28 0 21 2 24 10 12 5 -8
10 -21 10 -27z m-455 -20 c-8 -58 -24 -91 -25 -53 0 30 19 100 27 100 3 0 2
-21 -2 -47z m409 9 c60 -22 178 -103 159 -109 -6 -2 -44 12 -84 33 -105 53
-147 65 -213 65 -41 0 -64 -5 -77 -17 -17 -16 -24 -13 -20 10 1 5 -5 6 -14 2
-8 -3 -32 2 -51 12 -35 16 -35 17 -13 24 49 15 251 2 313 -20z m-694 3 c0 -10
-10 -15 -29 -15 -16 0 -34 7 -41 15 -11 13 -7 15 29 15 30 0 41 -4 41 -15z
m165 -5 c3 -5 -1 -10 -9 -10 -9 0 -16 5 -16 10 0 6 4 10 9 10 6 0 13 -4 16
-10z m611 -11 c19 -21 19 -21 -8 -8 -15 6 -25 16 -22 20 7 12 8 12 30 -12z
m-761 -19 c3 -5 -3 -10 -14 -10 -11 0 -23 5 -26 10 -3 6 3 10 14 10 11 0 23
-4 26 -10z m145 0 c0 -5 -4 -10 -10 -10 -5 0 -10 5 -10 10 0 6 5 10 10 10 6 0
10 -4 10 -10z m30 0 c0 -5 -4 -10 -10 -10 -5 0 -10 5 -10 10 0 6 5 10 10 10 6
0 10 -4 10 -10z m120 -55 c0 -36 -1 -38 -16 -24 -11 12 -14 26 -8 54 8 46 24
28 24 -30z m194 50 c-4 -8 -11 -15 -16 -15 -6 0 -5 6 2 15 7 8 14 15 16 15 2
0 1 -7 -2 -15z m31 -44 c-3 -2 -5 1 -5 8 0 7 -4 9 -10 6 -12 -7 -13 6 -3 31 6
15 8 13 15 -11 4 -16 5 -31 3 -34z m28 44 c4 -8 2 -17 -2 -20 -5 -2 -11 4 -14
15 -6 23 8 27 16 5z m52 5 c3 -5 12 -7 19 -4 8 3 17 0 21 -5 3 -6 10 -9 15 -6
9 6 40 -33 40 -50 0 -5 -9 3 -19 18 -12 19 -20 24 -23 16 -3 -8 2 -20 9 -28
19 -18 12 -45 -12 -50 -20 -3 -20 -3 0 20 l20 24 -26 -22 c-33 -30 -49 -29
-20 0 18 20 20 28 12 50 -14 36 -24 34 -16 -1 4 -21 1 -33 -15 -47 -25 -22
-27 -9 -2 18 12 15 14 21 4 24 -6 3 -10 9 -6 14 3 5 0 9 -5 9 -6 0 -11 -5 -11
-11 0 -5 -4 -8 -9 -5 -5 3 -11 -3 -14 -14 -3 -11 -10 -20 -16 -20 -16 0 5 39
25 47 8 3 13 12 10 19 -6 16 10 19 19 4z m-425 -30 c0 -5 -7 -10 -16 -10 -8 0
-12 5 -9 10 3 6 10 10 16 10 5 0 9 -4 9 -10z m40 0 c0 -5 -7 -10 -15 -10 -8 0
-15 5 -15 10 0 6 7 10 15 10 8 0 15 -4 15 -10z m520 -24 c1 15 40 -37 40 -52
0 -8 -5 -14 -11 -14 -5 0 -8 4 -4 10 3 5 0 18 -6 28 -11 18 -13 17 -40 -12
-15 -17 -31 -28 -34 -24 -4 4 -1 14 8 22 8 8 17 12 21 9 12 -12 6 33 -6 47 -7
8 -3 6 10 -4 12 -11 22 -15 22 -10z m-650 -12 c25 -15 25 -15 -14 -10 -22 3
-44 10 -50 16 -16 16 35 12 64 -6z m125 6 c-3 -5 -16 -10 -28 -10 -18 0 -19 2
-7 10 20 13 43 13 35 0z m385 6 c0 -2 -8 -10 -17 -17 -16 -13 -17 -12 -4 4 13
16 21 21 21 13z m-336 -25 c7 -11 -14 -20 -31 -13 -7 2 -10 8 -7 13 7 12 31
12 38 0z m549 -31 c3 -13 0 -20 -9 -20 -8 0 -11 6 -8 15 4 8 0 23 -7 33 -13
15 -12 16 2 4 9 -7 19 -22 22 -32z m-68 1 c-3 -6 -11 -11 -17 -11 -6 0 -6 6 2
15 14 17 26 13 15 -4z m-424 -6 c16 -9 35 -13 41 -9 7 4 8 3 4 -4 -10 -16 -24
-15 -71 7 -23 12 -33 20 -22 20 10 1 31 -6 48 -14z m585 -11 c53 -31 51 -39
-5 -24 -27 7 -41 17 -42 28 0 14 -2 14 -8 -2 -6 -15 -10 -16 -16 -7 -4 8 -2
17 6 22 18 11 14 13 65 -17z m-196 -4 c99 -10 260 -41 260 -50 0 -3 -37 -13
-82 -24 -92 -20 -222 -67 -314 -114 l-61 -31 -43 29 c-24 16 -51 41 -61 57
-21 33 -31 93 -20 111 15 25 178 36 321 22z m-740 -35 c-14 -16 -40 -20 -40
-6 0 10 17 19 39 20 11 1 11 -2 1 -14z m65 -7 c23 -10 26 -17 23 -56 -3 -43
-4 -45 -45 -57 -24 -7 -59 -22 -78 -34 -20 -11 -37 -21 -38 -21 -2 0 -4 14 -5
30 -1 17 2 30 8 30 5 0 7 7 3 16 -5 14 -2 16 23 10 23 -5 26 -4 11 4 -24 15
-11 33 14 19 11 -5 25 -8 32 -5 8 3 6 5 -3 5 -23 2 -43 18 -36 29 4 8 20 7 51
-3 25 -7 43 -9 40 -5 -3 5 -19 11 -36 15 -24 6 -28 9 -18 21 14 17 21 17 54 2z
m-106 -11 c15 -19 3 -28 -28 -21 -25 6 -26 6 -6 -10 19 -16 18 -17 -25 -12
-43 5 -44 5 -12 -6 17 -6 32 -17 32 -23 0 -10 -10 -10 -47 1 -25 8 -48 16 -51
18 -4 4 106 64 119 66 4 0 12 -6 18 -13z m396 3 c3 -5 -1 -10 -9 -10 -8 0 -18
5 -21 10 -3 6 1 10 9 10 8 0 18 -4 21 -10z m3102 -12 c6 -7 13 -28 17 -47 4
-25 29 -57 98 -124 l91 -91 -29 -9 c-16 -5 -121 -11 -232 -14 -192 -5 -206 -4
-231 14 -14 11 -37 23 -49 27 -42 14 -10 76 85 168 76 72 73 72 224 86 9 1 21
-4 26 -10z m-3127 -27 c-12 -24 -40 -46 -40 -33 0 6 6 17 13 24 8 7 12 19 9
26 -2 7 2 10 12 6 11 -4 13 -11 6 -23z m-502 -30 c9 -5 30 -13 47 -18 16 -4
31 -16 33 -25 3 -16 0 -16 -48 -2 -29 8 -54 13 -57 10 -3 -3 20 -12 51 -21 59
-17 72 -39 41 -65 -12 -10 -25 -8 -68 10 -65 28 -109 41 -102 30 3 -4 15 -10
28 -14 52 -13 119 -48 110 -57 -11 -11 -155 42 -160 58 -5 14 36 63 71 84 36
22 32 21 54 10z m596 -8 c4 -9 2 -21 -4 -27 -13 -13 -13 -29 0 -21 6 3 10 1
10 -4 0 -6 -3 -11 -7 -11 -15 0 -29 15 -27 30 0 8 2 23 2 33 2 22 18 22 26 0z
m-191 -10 c-7 -2 -9 -11 -6 -19 6 -16 -13 -19 -22 -3 -7 11 26 41 35 32 3 -3
0 -8 -7 -10z m37 -7 c0 -7 -7 -19 -15 -26 -10 -9 -15 -9 -15 -1 0 6 4 11 10
11 5 0 7 7 4 15 -4 8 -1 15 5 15 6 0 11 -6 11 -14z m-92 -22 c5 -9 12 -15 15
-15 26 4 31 1 19 -11 -9 -9 -15 -9 -24 0 -14 14 -42 16 -33 2 3 -5 1 -10 -4
-10 -9 0 -9 22 -2 48 3 8 21 -1 29 -14z m-112 -9 c-13 -36 -37 -138 -32 -142
2 -3 9 13 15 36 6 23 16 59 21 81 6 22 15 40 19 40 15 0 32 -56 26 -86 -5 -22
-4 -25 4 -14 6 8 11 22 11 31 0 12 10 16 38 16 21 0 52 8 69 17 l32 16 -15
-38 c-20 -49 -74 -97 -129 -112 -47 -13 -107 -7 -123 13 -13 15 13 138 31 149
21 13 40 9 33 -7z m64 -5 c0 -5 -2 -10 -4 -10 -3 0 -8 5 -11 10 -3 6 -1 10 4
10 6 0 11 -4 11 -10z m-135 -59 c-18 -68 -26 -76 -56 -59 -13 7 -26 14 -27 15
-2 1 1 9 6 19 9 16 10 16 16 -3 4 -12 13 -24 22 -27 12 -4 12 -2 4 14 -14 26
-3 67 23 85 11 8 22 13 24 12 1 -2 -4 -27 -12 -56z m481 32 c-7 -7 -26 7 -26
19 0 6 6 6 15 -2 9 -7 13 -15 11 -17z m-86 13 c0 -3 -4 -8 -10 -11 -5 -3 -10
-1 -10 4 0 6 5 11 10 11 6 0 10 -2 10 -4z m21 -29 c-13 -13 -26 -3 -16 12 3 6
11 8 17 5 6 -4 6 -10 -1 -17z m134 -17 c19 -21 19 -21 -1 -14 -17 7 -17 6 -5
-9 7 -9 16 -15 20 -13 4 3 8 -10 9 -27 l2 -32 -26 30 c-19 22 -22 24 -10 5 35
-54 32 -78 -5 -44 l-22 19 17 -27 c19 -29 13 -56 -8 -39 -9 8 -12 5 -12 -11 1
-26 -65 -71 -72 -49 -3 10 -6 11 -12 1 -10 -17 -51 -6 -81 21 l-24 21 28 -17
c16 -9 31 -15 33 -12 3 3 -11 15 -30 27 -20 12 -36 26 -36 31 0 13 13 11 38
-7 13 -9 25 -14 28 -12 2 3 -12 13 -31 24 -19 10 -35 25 -35 32 0 10 10 8 36
-8 19 -12 37 -20 39 -18 3 2 -13 15 -35 27 -22 12 -40 29 -40 37 0 19 4 18 50
-8 29 -17 40 -30 41 -48 1 -14 5 -36 9 -50 5 -15 6 0 3 38 -6 58 -5 62 15 62
31 0 62 38 62 77 0 29 2 32 18 24 9 -5 26 -19 37 -31z m-595 16 c0 -3 -4 -8
-10 -11 -5 -3 -10 -1 -10 4 0 6 5 11 10 11 6 0 10 -2 10 -4z m440 -14 c24 -20
20 -45 -5 -36 -8 4 -18 -1 -21 -10 -5 -12 -10 -13 -25 -5 -11 5 -17 14 -13 20
4 6 11 6 20 -2 8 -6 14 -10 15 -8 8 41 8 49 -1 44 -5 -3 -10 -1 -10 4 0 16 15
13 40 -7z m85 8 c3 -5 1 -10 -4 -10 -6 0 -11 5 -11 10 0 6 2 10 4 10 3 0 8 -4
11 -10z m-689 -34 c32 -13 52 -26 45 -30 -6 -4 -11 -18 -11 -32 0 -18 -4 -23
-12 -18 -10 6 -10 4 0 -8 26 -32 -6 -27 -44 8 l-39 34 33 -11 c18 -6 35 -9 39
-6 3 3 -15 11 -38 17 -47 12 -69 32 -69 63 0 21 5 20 96 -17z m690 -3 c-8 -8
-36 5 -36 17 0 7 6 7 21 0 11 -7 18 -14 15 -17z m-571 -2 c-3 -6 -11 -11 -17
-11 -6 0 -6 6 2 15 14 17 26 13 15 -4z m543 -10 c10 -6 8 -10 -9 -14 -13 -4
-25 -4 -28 -2 -2 3 1 5 8 5 7 0 9 5 6 10 -8 12 5 13 23 1z m152 -22 c0 -6 -4
-7 -10 -4 -5 3 -10 11 -10 16 0 6 5 7 10 4 6 -3 10 -11 10 -16z m-707 -2 c-2
-4 -3 -13 -3 -19 -1 -9 -5 -8 -13 3 -7 9 -18 14 -26 11 -8 -3 -11 0 -7 7 7 11
53 9 49 -2z m37 -23 c0 -16 -16 -19 -25 -4 -8 13 4 32 16 25 5 -4 9 -13 9 -21z
m261 -12 c-15 -22 -27 -29 -41 -25 -34 9 -36 26 -2 21 17 -2 28 0 25 4 -5 9
28 40 36 33 2 -2 -6 -17 -18 -33z m204 20 c-3 -3 -11 0 -18 7 -9 10 -8 11 6 5
10 -3 15 -9 12 -12z m-545 -22 c0 -11 -4 -20 -10 -20 -5 0 -10 9 -10 20 0 11
5 20 10 20 6 0 10 -9 10 -20z m120 4 c0 -8 5 -12 11 -9 10 7 119 -45 119 -56
0 -4 -8 -8 -17 -11 -25 -5 -151 64 -146 80 7 17 33 15 33 -4z m646 -11 c9 -32
-3 -41 -24 -18 -16 17 -16 18 3 11 19 -6 19 -5 3 8 -22 16 -23 23 -3 23 9 0
18 -11 21 -24z m-731 -3 c0 -7 -6 -15 -12 -17 -8 -3 -13 4 -13 17 0 13 5 20
13 18 6 -3 12 -11 12 -18z m100 -34 c48 -23 65 -36 55 -40 -20 -8 -153 51
-145 64 9 14 12 13 90 -24z m145 19 c23 -12 23 -14 6 -21 -11 -4 -34 1 -60 14
l-41 21 35 0 c19 0 46 -6 60 -14z m-290 -15 c0 -5 -2 -10 -4 -10 -3 0 -8 5
-11 10 -3 6 -1 10 4 10 6 0 11 -4 11 -10z m773 -27 c-15 -5 -53 15 -53 28 0 5
15 2 33 -7 17 -10 27 -19 20 -21z m-807 16 c3 -6 1 -15 -5 -20 -6 -5 -9 -6 -6
-3 3 4 0 13 -6 21 -8 9 -8 13 -1 13 6 0 14 -5 18 -11z m74 -4 c0 -9 -6 -12
-15 -9 -8 4 -15 10 -15 15 0 5 7 9 15 9 8 0 15 -7 15 -15z m81 -18 c46 -21 50
-25 34 -34 -14 -8 -29 -6 -62 10 -24 12 -43 27 -43 34 0 18 9 17 71 -10z
m-121 3 c0 -5 -4 -10 -10 -10 -5 0 -10 5 -10 10 0 6 5 10 10 10 6 0 10 -4 10
-10z m724 3 c4 -5 13 -8 19 -8 5 0 12 -6 15 -12 2 -7 -2 -13 -8 -13 -18 0 -50
20 -50 30 0 12 14 13 24 3z m-609 -64 c-6 -8 -105 42 -105 53 0 4 25 -4 54
-19 30 -15 53 -30 51 -34z m635 9 c0 -11 -2 -10 -44 7 -20 9 -34 19 -32 24 6
10 76 -19 76 -31z m-682 -5 c42 -26 16 -24 -29 2 -27 16 -34 24 -19 20 14 -4
36 -14 48 -22z m669 -21 c11 -28 -15 -37 -53 -18 -43 20 -38 34 6 16 17 -7 33
-10 36 -8 2 3 -16 13 -41 22 -25 10 -43 21 -40 26 7 11 86 -21 92 -38z m-704
16 c28 -10 37 -28 15 -28 -15 0 -78 37 -78 46 0 3 8 3 18 -1 9 -4 29 -12 45
-17z m477 18 c0 -11 -19 -15 -25 -6 -3 5 1 10 9 10 9 0 16 -2 16 -4z m54 -31
c-4 -8 -10 -15 -15 -15 -5 0 -8 -4 -6 -9 1 -5 -1 -9 -5 -10 -9 -1 -9 -3 -2 27
4 12 12 22 20 22 8 0 11 -6 8 -15z m-86 -15 c-7 -10 -14 -18 -15 -16 -6 6 9
36 18 36 5 0 4 -9 -3 -20z m98 -44 c-19 -34 -40 -61 -48 -62 -9 -1 -9 0 -1 3
10 3 10 7 0 18 -9 10 -15 10 -26 1 -11 -8 -13 -8 -8 1 4 7 0 16 -10 22 -10 5
-14 13 -10 17 5 5 12 2 16 -5 7 -11 11 -10 18 4 7 12 13 14 17 6 4 -6 2 -11
-4 -11 -6 0 -8 -4 -5 -10 9 -15 35 -12 30 3 -7 18 30 74 49 74 13 0 9 -13 -18
-61z m-61 44 c-3 -5 -11 -10 -16 -10 -6 0 -7 5 -4 10 3 6 11 10 16 10 6 0 7
-4 4 -10z m125 -5 c13 8 80 -27 80 -41 0 -10 -9 -9 -37 3 -50 20 -75 38 -66
47 4 4 9 2 11 -3 2 -6 8 -9 12 -6z m33 -47 l42 -22 -32 -9 c-18 -5 -40 -6 -50
-2 -10 5 -21 8 -25 7 -4 -1 -5 5 -2 13 5 13 9 13 34 0 42 -22 50 -18 13 5 -30
18 -41 30 -28 30 3 0 25 -10 48 -22z"/>
<path d="M370 2062 c20 -13 141 -54 146 -49 3 3 -102 42 -146 54 -13 4 -13 3
0 -5z"/>
<path d="M1020 2089 c0 -5 5 -7 10 -4 6 3 10 8 10 11 0 2 -4 4 -10 4 -5 0 -10
-5 -10 -11z"/>
<path d="M325 1980 c6 -9 97 -42 102 -36 2 1 -21 12 -52 23 -30 11 -52 17 -50
13z"/>
<path d="M1568 2833 c6 -2 18 -2 25 0 6 3 1 5 -13 5 -14 0 -19 -2 -12 -5z"/>
<path d="M1762 2640 c0 -14 2 -19 5 -12 2 6 2 18 0 25 -3 6 -5 1 -5 -13z"/>
<path d="M1771 2594 c0 -11 3 -14 6 -6 3 7 2 16 -1 19 -3 4 -6 -2 -5 -13z"/>
<path d="M856 2175 c10 -8 24 -14 29 -14 6 0 1 6 -9 14 -11 8 -24 15 -30 15
-5 0 -1 -7 10 -15z"/>
</g>
</svg>
